<mxfile host="app.diagrams.net" agent="Mozilla/5.0 (Macintosh; Intel Mac OS X 10_15_7) AppleWebKit/537.36 (KHTML, like Gecko) Chrome/130.0.0.0 Safari/537.36" version="24.8.3">
  <diagram name="Page-1" id="yl57-H0XewpW2XBITw13">
    <mxGraphModel dx="1194" dy="727" grid="1" gridSize="10" guides="1" tooltips="1" connect="1" arrows="1" fold="1" page="1" pageScale="1" pageWidth="827" pageHeight="1169" math="0" shadow="0">
      <root>
        <mxCell id="0" />
        <mxCell id="1" parent="0" />
        <mxCell id="fTedjAnOHH3bOTMZhRFC-19" style="rounded=0;orthogonalLoop=1;jettySize=auto;html=1;entryX=0;entryY=0.5;entryDx=0;entryDy=0;strokeWidth=6;sketch=1;curveFitting=1;jiggle=2;" parent="1" source="fTedjAnOHH3bOTMZhRFC-14" target="fTedjAnOHH3bOTMZhRFC-10" edge="1">
          <mxGeometry relative="1" as="geometry" />
        </mxCell>
        <mxCell id="fTedjAnOHH3bOTMZhRFC-10" value="" style="rounded=1;whiteSpace=wrap;html=1;strokeWidth=2;fillWeight=4;hachureGap=8;hachureAngle=45;fillColor=#1ba1e2;sketch=1;glass=1;" parent="1" vertex="1">
          <mxGeometry x="270" y="200" width="650" height="240" as="geometry" />
        </mxCell>
        <mxCell id="fTedjAnOHH3bOTMZhRFC-15" value="keystoneD" style="ellipse;fontSize=18;html=1;whiteSpace=wrap;opacity=90;sketch=1;curveFitting=1;jiggle=2;fontFamily=Tahoma;" parent="1" vertex="1">
          <mxGeometry x="550" y="200" width="123" height="40" as="geometry" />
        </mxCell>
        <mxCell id="fTedjAnOHH3bOTMZhRFC-27" value="" style="shape=cube;whiteSpace=wrap;html=1;boundedLbl=1;backgroundOutline=1;darkOpacity=0.05;darkOpacity2=0.1;sketch=1;curveFitting=1;jiggle=2;" parent="1" vertex="1">
          <mxGeometry x="460" y="251" width="440" height="179" as="geometry" />
        </mxCell>
        <mxCell id="fTedjAnOHH3bOTMZhRFC-28" value="Incus" style="ellipse;fontSize=18;html=1;whiteSpace=wrap;opacity=90;sketch=1;curveFitting=1;jiggle=2;fillColor=#d5e8d4;strokeColor=#82b366;" parent="1" vertex="1">
          <mxGeometry x="650" y="280" width="123" height="40" as="geometry" />
        </mxCell>
        <mxCell id="fTedjAnOHH3bOTMZhRFC-29" value="" style="group;fontFamily=Tahoma;" parent="1" vertex="1" connectable="0">
          <mxGeometry x="270" y="287.5" width="70" height="65.00000000000003" as="geometry" />
        </mxCell>
        <mxCell id="fTedjAnOHH3bOTMZhRFC-21" value="" style="ellipse;whiteSpace=wrap;html=1;strokeWidth=2;fillWeight=2;hachureGap=8;fillColor=#990000;fillStyle=dots;sketch=1;fontFamily=Tahoma;" parent="fTedjAnOHH3bOTMZhRFC-29" vertex="1">
          <mxGeometry width="70" height="65" as="geometry" />
        </mxCell>
        <mxCell id="fTedjAnOHH3bOTMZhRFC-22" value="&lt;font style=&quot;font-size: 12px;&quot;&gt;rcp&lt;br style=&quot;font-size: 12px;&quot;&gt;api&lt;/font&gt;" style="ellipse;fontSize=12;html=1;whiteSpace=wrap;opacity=90;sketch=1;curveFitting=1;jiggle=2;fontFamily=Tahoma;" parent="fTedjAnOHH3bOTMZhRFC-29" vertex="1">
          <mxGeometry y="7.969999999999999" width="40" height="49.06" as="geometry" />
        </mxCell>
        <mxCell id="fTedjAnOHH3bOTMZhRFC-31" value="" style="group" parent="1" vertex="1" connectable="0">
          <mxGeometry x="120" y="140" width="130" height="70" as="geometry" />
        </mxCell>
        <mxCell id="fTedjAnOHH3bOTMZhRFC-14" value="" style="rhombus;whiteSpace=wrap;html=1;strokeWidth=2;fillWeight=-1;hachureGap=8;fillStyle=cross-hatch;fillColor=#006600;sketch=1;movable=1;resizable=1;rotatable=1;deletable=1;editable=1;locked=0;connectable=1;shadow=0;" parent="fTedjAnOHH3bOTMZhRFC-31" vertex="1">
          <mxGeometry width="130" height="70" as="geometry" />
        </mxCell>
        <mxCell id="fTedjAnOHH3bOTMZhRFC-16" value="cli" style="ellipse;fontSize=18;html=1;whiteSpace=wrap;opacity=90;sketch=1;curveFitting=1;jiggle=2;fontFamily=Tahoma;" parent="fTedjAnOHH3bOTMZhRFC-31" vertex="1">
          <mxGeometry x="39.25" y="15" width="51.5" height="40" as="geometry" />
        </mxCell>
        <mxCell id="fTedjAnOHH3bOTMZhRFC-20" style="rounded=0;orthogonalLoop=1;jettySize=auto;html=1;entryX=0;entryY=0.5;entryDx=0;entryDy=0;strokeWidth=6;sketch=1;curveFitting=1;jiggle=2;" parent="1" source="fTedjAnOHH3bOTMZhRFC-17" target="fTedjAnOHH3bOTMZhRFC-10" edge="1">
          <mxGeometry relative="1" as="geometry">
            <mxPoint x="165" y="350" as="targetPoint" />
          </mxGeometry>
        </mxCell>
        <mxCell id="fTedjAnOHH3bOTMZhRFC-33" value="" style="group;fontFamily=Tahoma;" parent="1" vertex="1" connectable="0">
          <mxGeometry x="490" y="300" width="70" height="65.00000000000003" as="geometry" />
        </mxCell>
        <mxCell id="fTedjAnOHH3bOTMZhRFC-34" value="" style="ellipse;whiteSpace=wrap;html=1;strokeWidth=2;fillWeight=2;hachureGap=8;fillColor=#990000;fillStyle=dots;sketch=1;fontFamily=Tahoma;" parent="fTedjAnOHH3bOTMZhRFC-33" vertex="1">
          <mxGeometry width="70" height="65" as="geometry" />
        </mxCell>
        <mxCell id="fTedjAnOHH3bOTMZhRFC-35" value="&lt;span style=&quot;font-size: 12px;&quot;&gt;rest&lt;br style=&quot;font-size: 12px;&quot;&gt;api&lt;/span&gt;" style="ellipse;fontSize=12;html=1;whiteSpace=wrap;opacity=90;sketch=1;curveFitting=1;jiggle=2;fontFamily=Tahoma;" parent="fTedjAnOHH3bOTMZhRFC-33" vertex="1">
          <mxGeometry y="7.969999999999999" width="40" height="49.06" as="geometry" />
        </mxCell>
        <mxCell id="fTedjAnOHH3bOTMZhRFC-41" style="rounded=0;orthogonalLoop=1;jettySize=auto;html=1;entryX=0;entryY=0.5;entryDx=0;entryDy=0;sketch=1;curveFitting=1;jiggle=2;flowAnimation=0;exitX=1;exitY=0.5;exitDx=0;exitDy=0;strokeWidth=4;strokeColor=#EA6B66;" parent="1" source="fTedjAnOHH3bOTMZhRFC-37" target="fTedjAnOHH3bOTMZhRFC-35" edge="1">
          <mxGeometry relative="1" as="geometry" />
        </mxCell>
        <mxCell id="fTedjAnOHH3bOTMZhRFC-37" value="add container" style="ellipse;fontSize=12;html=1;whiteSpace=wrap;opacity=90;sketch=1;curveFitting=1;jiggle=2;fontFamily=Tahoma;" parent="1" vertex="1">
          <mxGeometry x="360" y="214" width="83" height="42" as="geometry" />
        </mxCell>
        <mxCell id="fTedjAnOHH3bOTMZhRFC-38" value="list containers" style="ellipse;fontSize=12;html=1;whiteSpace=wrap;opacity=90;sketch=1;curveFitting=1;jiggle=2;fontFamily=Tahoma;" parent="1" vertex="1">
          <mxGeometry x="360" y="270" width="83" height="42" as="geometry" />
        </mxCell>
        <mxCell id="fTedjAnOHH3bOTMZhRFC-39" value="&amp;nbsp;add network bridge" style="ellipse;fontSize=12;html=1;whiteSpace=wrap;opacity=90;sketch=1;curveFitting=1;jiggle=2;fontFamily=Tahoma;" parent="1" vertex="1">
          <mxGeometry x="360" y="331" width="83" height="42" as="geometry" />
        </mxCell>
        <mxCell id="fTedjAnOHH3bOTMZhRFC-40" value="..." style="ellipse;fontSize=12;html=1;whiteSpace=wrap;opacity=90;sketch=1;curveFitting=1;jiggle=2;fontFamily=Tahoma;" parent="1" vertex="1">
          <mxGeometry x="360" y="388" width="83" height="42" as="geometry" />
        </mxCell>
        <mxCell id="fTedjAnOHH3bOTMZhRFC-42" style="rounded=0;orthogonalLoop=1;jettySize=auto;html=1;entryX=0;entryY=0.5;entryDx=0;entryDy=0;sketch=1;curveFitting=1;jiggle=2;flowAnimation=0;exitX=1;exitY=0.5;exitDx=0;exitDy=0;strokeWidth=4;strokeColor=#EA6B66;" parent="1" source="fTedjAnOHH3bOTMZhRFC-38" target="fTedjAnOHH3bOTMZhRFC-35" edge="1">
          <mxGeometry relative="1" as="geometry">
            <mxPoint x="453" y="245" as="sourcePoint" />
            <mxPoint x="500" y="354" as="targetPoint" />
          </mxGeometry>
        </mxCell>
        <mxCell id="fTedjAnOHH3bOTMZhRFC-44" style="rounded=0;orthogonalLoop=1;jettySize=auto;html=1;entryX=0;entryY=0.5;entryDx=0;entryDy=0;sketch=1;curveFitting=1;jiggle=2;flowAnimation=0;exitX=1;exitY=0.5;exitDx=0;exitDy=0;strokeWidth=4;strokeColor=#EA6B66;" parent="1" source="fTedjAnOHH3bOTMZhRFC-39" target="fTedjAnOHH3bOTMZhRFC-35" edge="1">
          <mxGeometry relative="1" as="geometry">
            <mxPoint x="453" y="301" as="sourcePoint" />
            <mxPoint x="500" y="354" as="targetPoint" />
          </mxGeometry>
        </mxCell>
        <mxCell id="fTedjAnOHH3bOTMZhRFC-46" style="rounded=0;orthogonalLoop=1;jettySize=auto;html=1;entryX=0;entryY=0.5;entryDx=0;entryDy=0;sketch=1;curveFitting=1;jiggle=2;flowAnimation=0;exitX=1;exitY=0.5;exitDx=0;exitDy=0;strokeWidth=4;strokeColor=#EA6B66;" parent="1" source="fTedjAnOHH3bOTMZhRFC-40" target="fTedjAnOHH3bOTMZhRFC-35" edge="1">
          <mxGeometry relative="1" as="geometry">
            <mxPoint x="453" y="362" as="sourcePoint" />
            <mxPoint x="500" y="354" as="targetPoint" />
          </mxGeometry>
        </mxCell>
        <mxCell id="fTedjAnOHH3bOTMZhRFC-47" value="python" style="shape=cylinder3;whiteSpace=wrap;html=1;boundedLbl=1;backgroundOutline=1;size=15;sketch=1;curveFitting=1;jiggle=2;" parent="1" vertex="1">
          <mxGeometry x="580" y="331" width="60" height="80" as="geometry" />
        </mxCell>
        <mxCell id="fTedjAnOHH3bOTMZhRFC-48" value="nixos" style="ellipse;fontSize=10;html=1;whiteSpace=wrap;opacity=90;sketch=1;curveFitting=1;jiggle=2;fillColor=#A9C4EB;strokeColor=#A9C4EB;" parent="1" vertex="1">
          <mxGeometry x="585" y="331" width="50" height="30" as="geometry" />
        </mxCell>
        <mxCell id="fTedjAnOHH3bOTMZhRFC-49" value="sqlite" style="shape=cylinder3;whiteSpace=wrap;html=1;boundedLbl=1;backgroundOutline=1;size=15;sketch=1;curveFitting=1;jiggle=2;" parent="1" vertex="1">
          <mxGeometry x="690" y="331" width="60" height="80" as="geometry" />
        </mxCell>
        <mxCell id="fTedjAnOHH3bOTMZhRFC-50" value="nixos" style="ellipse;fontSize=10;html=1;whiteSpace=wrap;opacity=90;sketch=1;curveFitting=1;jiggle=2;fillColor=#A9C4EB;strokeColor=#A9C4EB;" parent="1" vertex="1">
          <mxGeometry x="695" y="331" width="50" height="30" as="geometry" />
        </mxCell>
        <mxCell id="fTedjAnOHH3bOTMZhRFC-51" value="python" style="shape=cylinder3;whiteSpace=wrap;html=1;boundedLbl=1;backgroundOutline=1;size=15;sketch=1;curveFitting=1;jiggle=2;" parent="1" vertex="1">
          <mxGeometry x="810" y="331" width="60" height="80" as="geometry" />
        </mxCell>
        <mxCell id="fTedjAnOHH3bOTMZhRFC-52" value="nixos" style="ellipse;fontSize=10;html=1;whiteSpace=wrap;opacity=90;sketch=1;curveFitting=1;jiggle=2;fillColor=#A9C4EB;strokeColor=#A9C4EB;" parent="1" vertex="1">
          <mxGeometry x="815" y="331" width="50" height="30" as="geometry" />
        </mxCell>
        <mxCell id="fTedjAnOHH3bOTMZhRFC-53" value="bridge" style="edgeStyle=orthogonalEdgeStyle;rounded=0;orthogonalLoop=1;jettySize=auto;html=1;exitX=1;exitY=0.5;exitDx=0;exitDy=0;exitPerimeter=0;entryX=0;entryY=0.5;entryDx=0;entryDy=0;entryPerimeter=0;startArrow=classic;startFill=1;sketch=1;curveFitting=1;jiggle=2;strokeWidth=2;spacingBottom=20;" parent="1" source="fTedjAnOHH3bOTMZhRFC-47" target="fTedjAnOHH3bOTMZhRFC-49" edge="1">
          <mxGeometry relative="1" as="geometry" />
        </mxCell>
        <mxCell id="fTedjAnOHH3bOTMZhRFC-54" value="bridge" style="edgeStyle=orthogonalEdgeStyle;rounded=0;orthogonalLoop=1;jettySize=auto;html=1;exitX=1;exitY=0.5;exitDx=0;exitDy=0;exitPerimeter=0;entryX=0;entryY=0.5;entryDx=0;entryDy=0;entryPerimeter=0;startArrow=classic;startFill=1;sketch=1;curveFitting=1;jiggle=2;strokeWidth=2;spacingBottom=20;" parent="1" source="fTedjAnOHH3bOTMZhRFC-49" target="fTedjAnOHH3bOTMZhRFC-51" edge="1">
          <mxGeometry relative="1" as="geometry">
            <mxPoint x="650" y="381" as="sourcePoint" />
            <mxPoint x="700" y="381" as="targetPoint" />
          </mxGeometry>
        </mxCell>
        <mxCell id="fTedjAnOHH3bOTMZhRFC-55" value="" style="group" parent="1" vertex="1" connectable="0">
          <mxGeometry x="10" y="282.5" width="140" height="70" as="geometry" />
        </mxCell>
        <mxCell id="fTedjAnOHH3bOTMZhRFC-56" value="" style="rhombus;whiteSpace=wrap;html=1;strokeWidth=2;fillWeight=-1;hachureGap=8;fillStyle=cross-hatch;fillColor=#A680B8;sketch=1;movable=1;resizable=1;rotatable=1;deletable=1;editable=1;locked=0;connectable=1;shadow=0;" parent="fTedjAnOHH3bOTMZhRFC-55" vertex="1">
          <mxGeometry width="130" height="70" as="geometry" />
        </mxCell>
        <mxCell id="fTedjAnOHH3bOTMZhRFC-57" value="third&lt;br style=&quot;font-size: 14px;&quot;&gt;party" style="ellipse;fontSize=14;html=1;whiteSpace=wrap;opacity=90;sketch=1;curveFitting=1;jiggle=2;fontFamily=Tahoma;" parent="fTedjAnOHH3bOTMZhRFC-55" vertex="1">
          <mxGeometry x="39.25" y="15" width="51.5" height="40" as="geometry" />
        </mxCell>
        <mxCell id="fTedjAnOHH3bOTMZhRFC-58" style="rounded=0;orthogonalLoop=1;jettySize=auto;html=1;entryX=0;entryY=0.5;entryDx=0;entryDy=0;sketch=1;curveFitting=1;jiggle=2;strokeWidth=6;" parent="1" source="fTedjAnOHH3bOTMZhRFC-56" target="fTedjAnOHH3bOTMZhRFC-21" edge="1">
          <mxGeometry relative="1" as="geometry" />
        </mxCell>
        <mxCell id="fTedjAnOHH3bOTMZhRFC-17" value="" style="rhombus;whiteSpace=wrap;html=1;strokeWidth=2;fillWeight=-1;hachureGap=8;fillStyle=cross-hatch;fillColor=#FF99CC;sketch=1;movable=1;resizable=1;rotatable=1;deletable=1;editable=1;locked=0;connectable=1;" parent="1" vertex="1">
          <mxGeometry x="110" y="420" width="130" height="70" as="geometry" />
        </mxCell>
        <mxCell id="fTedjAnOHH3bOTMZhRFC-18" value="Tf" style="ellipse;fontSize=18;html=1;whiteSpace=wrap;opacity=90;sketch=1;curveFitting=1;jiggle=2;fontFamily=Tahoma;" parent="1" vertex="1">
          <mxGeometry x="149.25" y="435" width="51.5" height="40" as="geometry" />
        </mxCell>
      </root>
    </mxGraphModel>
  </diagram>
</mxfile>
